<svg width="458" height="188" viewBox="0 0 458 188" fill="none" xmlns="http://www.w3.org/2000/svg">
<rect x="11.5" y="0.5" width="446" height="177" rx="12.5" fill="white" stroke="#EBEBEB"/>
<rect x="0.5" y="10.5" width="446" height="177" rx="12.5" fill="white" stroke="#EBEBEB"/>
<circle cx="37" cy="47" r="11" fill="#62D08E"/>
<path d="M33.4668 48.5715L36.1186 50.9286L40.5382 43.4644" stroke="white" stroke-width="2" stroke-linecap="round" stroke-linejoin="round"/>
<circle cx="37" cy="82" r="11" fill="#62D08E"/>
<path d="M33.4668 83.5715L36.1186 85.9286L40.5382 78.4644" stroke="white" stroke-width="2" stroke-linecap="round" stroke-linejoin="round"/>
<rect x="66" y="41" width="68" height="11" rx="5" fill="#E1E4E9"/>
<rect x="143" y="41" width="111" height="11" rx="5" fill="#E1E4E9"/>
<rect x="263" y="41" width="63" height="11" rx="5" fill="#E1E4E9"/>
<rect x="335" y="41" width="79" height="11" rx="5" fill="#E1E4E9"/>
<rect x="66" y="76" width="68" height="11" rx="5" fill="#E1E4E9"/>
<rect x="143" y="76" width="111" height="11" rx="5" fill="#E1E4E9"/>
<rect x="263" y="76" width="63" height="11" rx="5" fill="#E1E4E9"/>
<rect x="335" y="76" width="79" height="11" rx="5" fill="#E1E4E9"/>
<rect x="66" y="111" width="68" height="11" rx="5" fill="#E1E4E9"/>
<rect x="143" y="111" width="111" height="11" rx="5" fill="#E1E4E9"/>
<rect x="263" y="111" width="63" height="11" rx="5" fill="#E1E4E9"/>
<rect x="335" y="111" width="79" height="11" rx="5" fill="#E1E4E9"/>
<rect x="66" y="146" width="68" height="11" rx="5" fill="#E1E4E9"/>
<rect x="143" y="146" width="111" height="11" rx="5" fill="#E1E4E9"/>
<rect x="263" y="146" width="63" height="11" rx="5" fill="#E1E4E9"/>
<rect x="335" y="146" width="79" height="11" rx="5" fill="#E1E4E9"/>
<circle cx="37" cy="117" r="11" fill="#FF4B4B"/>
<path d="M37 118.964L37 111.5" stroke="white" stroke-width="2" stroke-linecap="round" stroke-linejoin="round"/>
<ellipse cx="37.0014" cy="122.5" rx="0.785714" ry="0.785714" transform="rotate(-180 37.0014 122.5)" fill="white"/>
<circle cx="37" cy="152" r="11" fill="#EFC65B"/>
<path d="M37 150.036V157.5" stroke="white" stroke-width="2" stroke-linecap="round" stroke-linejoin="round"/>
<circle cx="37.0006" cy="146.5" r="0.785714" fill="white"/>
</svg>
