<svg width="457" height="188" viewBox="0 0 457 188" fill="none" xmlns="http://www.w3.org/2000/svg">
<rect x="10.5" y="0.5" width="446" height="177" rx="12.5" fill="white" stroke="#EBEBEB"/>
<rect x="0.5" y="10.5" width="446" height="177" rx="12.5" fill="white" stroke="#EBEBEB"/>
<rect x="36" y="154" width="47" height="11" rx="5" fill="#E1E4E9"/>
<rect x="133" y="154" width="47" height="11" rx="5" fill="#E1E4E9"/>
<rect x="229" y="154" width="47" height="11" rx="5" fill="#E1E4E9"/>
<path d="M424 89C308.502 53.8 110.542 39 26 36V52C224.4 64.8 374 112 424 134V89Z" fill="url(#paint0_linear)"/>
<path d="M26 36C110.542 39 308.502 53.8 424 89" stroke="#4F71EC" stroke-width="2" stroke-linecap="round" stroke-linejoin="round"/>
<path d="M424 134C311.819 83 110.542 55 26 52V69C26 69 95 69 229 99C363 129 424 161 424 161V134Z" fill="url(#paint1_linear)"/>
<path d="M26 52C110.542 55 311.819 83 424 134" stroke="#ECC94F" stroke-width="2" stroke-linecap="round" stroke-linejoin="round"/>
<path d="M424 161C311.819 110 110.542 71 26 68V161H424Z" fill="url(#paint2_linear)"/>
<path d="M26 68C110.542 71 311.819 110 424 161" stroke="#EC4F4F" stroke-width="2" stroke-linecap="round" stroke-linejoin="round"/>
<circle cx="27.5" cy="159.5" r="3.5" fill="#4F71EC"/>
<circle cx="123.5" cy="159.5" r="3.5" fill="#ECC94F"/>
<circle cx="220.5" cy="159.5" r="3.5" fill="#EC4F4F"/>
<defs>
<linearGradient id="paint0_linear" x1="225" y1="-8.99999" x2="212" y2="92" gradientUnits="userSpaceOnUse">
<stop stop-color="#4F71EC"/>
<stop offset="1" stop-color="white" stop-opacity="0"/>
</linearGradient>
<linearGradient id="paint1_linear" x1="231" y1="29" x2="210" y2="131" gradientUnits="userSpaceOnUse">
<stop stop-color="#ECC94F"/>
<stop offset="1" stop-color="white" stop-opacity="0"/>
</linearGradient>
<linearGradient id="paint2_linear" x1="217" y1="-43" x2="203" y2="168" gradientUnits="userSpaceOnUse">
<stop stop-color="#EC4F4F"/>
<stop offset="1" stop-color="white" stop-opacity="0"/>
</linearGradient>
</defs>
</svg>
