<svg width="1440" height="1023" viewBox="0 0 1440 1023" fill="none" xmlns="http://www.w3.org/2000/svg">
<path d="M-163 307C-145 271.333 103.2 185.8 300 177C484.214 168.763 615.974 112.532 675.5 69C680.5 67.1203 709 60 709 60L714.5 59V77L716 87.5L705 95.5V100L718 97L720 103.5L722 97L735 100V95.5L724 87.5L725 79V60L726 59L739.5 61.5C739.5 61.5 761 67.9865 763.5 69C822.715 112.449 954.268 168.74 1139 177C1335.8 185.8 1586 271.333 1604 307L1602 1020H-168L-163 307Z" fill="url(#paint0_linear)" fill-opacity="0.2"/>
<path d="M-163 367C-145 331.333 103.2 206.8 300 198C484.214 189.763 615.974 113.532 675.5 70C680.5 68.1203 709 61 709 61L714.5 60V78L716 88.5L705 96.5V101L718 98L720 104.5L722 98L735 101V96.5L724 88.5L725 80V61L726 60L739.5 62.5C739.5 62.5 761 68.9865 763.5 70C822.715 113.449 954.268 189.74 1139 198C1335.8 206.8 1586 331.333 1604 367L1602 1021H-168L-163 367Z" fill="url(#paint1_linear)" fill-opacity="0.2"/>
<path d="M-163 431C-145 395.333 103.2 230.8 300 222C484.214 213.763 615.974 113.532 675.5 70C680.5 68.1203 709 61 709 61L714.5 60V78L716 88.5L705 96.5V101L718 98L720 104.5L722 98L735 101V96.5L724 88.5L725 80V61L726 60L739.5 62.5C739.5 62.5 761 68.9865 763.5 70C822.715 113.449 954.268 213.74 1139 222C1335.8 230.8 1586 395.333 1604 431L1602 1021H-168L-163 431Z" fill="url(#paint2_linear)"/>
<path d="M-163 507C-145 471.333 103.2 258.8 300 250C484.214 241.763 615.974 115.532 675.5 72C680.5 70.1203 709 63 709 63L714.5 62V80L716 90.5L705 98.5V103L718 100L720 106.5L722 100L735 103V98.5L724 90.5L725 82V63L726 62L739.5 64.5C739.5 64.5 761 70.9865 763.5 72C822.715 115.449 954.268 241.74 1139 250C1335.8 258.8 1586 471.333 1604 507L1602 1023H-168L-163 507Z" fill="url(#paint3_linear)"/>
<path d="M739.902 47.3211C739.17 46.7528 738.741 45.8779 738.741 44.9509V37.4824C738.741 36.4131 737.873 35.5437 736.806 35.5437H732.512C731.444 35.5437 730.577 36.4131 730.577 37.4824V37.4824C730.577 38.5425 729.359 39.1394 728.521 38.4897L726.765 37.1274C726.188 36.6797 725.85 35.9903 725.85 35.2599V10.3315C725.85 4.15167 722.827 0 720.002 0C717.176 0 714.152 4.1505 714.152 10.3315V35.2594C714.152 35.9894 713.815 36.6784 713.238 37.1259L711.482 38.4879C710.645 39.1374 709.427 38.5408 709.427 37.4812V37.4812C709.427 36.4119 708.558 35.5425 707.491 35.5425H703.195C702.129 35.5425 701.261 36.4119 701.261 37.4812V44.9497C701.261 45.8767 700.832 46.7517 700.1 47.32L677.013 65.2316C676.379 65.7237 676.027 66.4961 676.072 67.2977V67.2977C676.159 68.8619 677.676 69.9403 679.182 69.5092L702.274 62.9003L710.556 61.2227C712.415 60.8463 714.152 62.2668 714.152 64.163V77.2615C714.152 78.7003 714.559 81.6798 715.363 86.1304C715.567 87.2599 715.119 88.4107 714.197 89.095L705.401 95.6255C704.639 96.1914 704.19 97.0848 704.19 98.0342V98.1067C704.19 100.037 705.985 101.464 707.866 101.03L714.884 99.4064C716.52 99.0279 718.148 100.067 718.502 101.709C718.987 103.96 719.313 105.421 719.32 105.454C719.32 105.456 719.32 105.456 719.321 105.457V105.457C719.393 105.774 719.676 106 720.002 106V106C720.328 106 720.611 105.774 720.682 105.455V105.455C720.682 105.455 720.682 105.455 720.682 105.455C720.683 105.454 721.011 103.985 721.502 101.71C721.856 100.068 723.483 99.029 725.119 99.4073L732.137 101.03C734.017 101.465 735.813 100.037 735.813 98.1069V98.0342C735.813 97.0848 735.363 96.1914 734.601 95.6255L725.805 89.0948C724.884 88.4107 724.435 87.26 724.639 86.1305C725.443 81.6774 725.849 78.6994 725.849 77.2615V64.1599C725.849 62.2636 727.587 60.843 729.445 61.2197L737.674 62.8875L760.817 69.5096C762.323 69.9405 763.84 68.8623 763.928 67.2983V67.2983C763.973 66.4964 763.621 65.7236 762.987 65.2312L739.902 47.3211ZM732.51 36.9373H736.806C737.105 36.9373 737.348 37.1825 737.348 37.4824V39.8469C737.348 42.0841 734.776 43.3438 733.008 41.9723V41.9723C732.352 41.4627 731.967 40.6781 731.967 39.8469V37.4824C731.967 37.1825 732.21 36.9373 732.51 36.9373ZM754.567 64.866C754.567 65.57 753.893 66.0781 753.216 65.8845L739.099 61.8461C738.644 61.7161 738.331 61.3005 738.331 60.8276V60.8276C738.331 60.1237 739.004 59.6155 739.681 59.8091L753.799 63.8475C754.253 63.9776 754.567 64.3932 754.567 64.866V64.866ZM737.402 60.0757C737.402 60.7655 736.77 61.2822 736.094 61.1452L726.724 59.2466C726.215 59.1435 725.849 58.6962 725.849 58.1771V58.1771C725.849 57.4873 726.481 56.9705 727.157 57.1075L736.528 59.0061C737.037 59.1092 737.402 59.5565 737.402 60.0757V60.0757ZM703.194 36.9373H707.49C707.79 36.9373 708.034 37.1825 708.034 37.4824V39.8462C708.034 40.6779 707.649 41.4628 706.992 41.9726V41.9726C705.224 43.3445 702.651 42.0843 702.651 39.8462V37.4824C702.651 37.1825 702.895 36.9373 703.194 36.9373ZM677.461 67.2215C677.442 66.8781 677.593 66.5472 677.865 66.3364L709.313 41.9365C711.284 40.4072 714.152 41.812 714.152 44.3068V53.4442C714.152 54.8715 713.146 56.1012 711.748 56.3845L702.008 58.357L686.031 62.9292C685.129 63.1873 684.507 64.0119 684.507 64.95V64.95C684.507 65.8881 683.886 66.7127 682.984 66.9708L678.794 68.1697C678.149 68.3545 677.498 67.892 677.461 67.2215V67.2215ZM701.671 60.8244C701.672 61.2978 701.358 61.7139 700.903 61.8441L686.785 65.8833C686.108 66.0769 685.434 65.5688 685.434 64.8648V64.8648C685.434 64.392 685.748 63.9764 686.202 63.8463L700.32 59.8059C700.997 59.6121 701.671 60.1202 701.671 60.8244V60.8244ZM703.907 61.1473C703.231 61.2844 702.599 60.7676 702.599 60.0778V60.0778C702.599 59.5587 702.965 59.1115 703.473 59.0083L712.844 57.1078C713.52 56.9707 714.152 57.4875 714.152 58.1773V58.1773C714.152 58.6964 713.786 59.1436 713.278 59.2468L703.907 61.1473ZM705.582 98.0542C705.582 97.5324 705.829 97.0414 706.248 96.7303L712.409 92.1555C714.175 90.844 716.705 91.8164 717.139 93.9732L717.233 94.4434C717.553 96.0345 716.549 97.5913 714.968 97.9571L707.603 99.6608C706.569 99.8998 705.582 99.115 705.582 98.0542V98.0542ZM733.754 96.7307C734.172 97.0415 734.419 97.5321 734.419 98.0535V98.0535C734.419 99.1135 733.433 99.8978 732.4 99.659L725.033 97.9557C723.452 97.5901 722.448 96.0332 722.768 94.442L722.862 93.9718C723.296 91.8148 725.826 90.8423 727.593 92.1542L733.754 96.7307ZM724.457 77.2591C724.456 77.2591 724.456 77.2596 724.456 77.2602C724.455 78.8219 723.9 82.5849 722.849 88.1427L722.791 88.4488C722.776 88.5239 722.806 88.6005 722.868 88.6461V88.6461C722.93 88.6922 722.96 88.7699 722.944 88.8456L721.313 96.9776C721.3 97.0386 721.24 97.0775 721.18 97.0637V97.0637C721.119 97.05 721.059 97.0885 721.047 97.1491L720.925 97.7362V97.7362C720.713 98.7445 719.292 98.7435 719.081 97.735V97.735L718.958 97.1469C718.945 97.0864 718.885 97.0483 718.825 97.0625V97.0625C718.765 97.0769 718.704 97.0382 718.692 96.9773L717.058 88.846C717.043 88.7701 717.073 88.6921 717.135 88.6461V88.6461C717.197 88.6006 717.227 88.5237 717.213 88.4484L717.155 88.1427C716.103 82.587 715.547 78.8212 715.547 77.2591V10.3315C715.547 4.79441 718.141 1.39474 720.003 1.39474C721.863 1.39474 724.458 4.79557 724.458 10.3315V77.258C724.458 77.2586 724.457 77.2591 724.457 77.2591V77.2591ZM762.537 67.2189C762.5 67.89 761.849 68.353 761.203 68.1681L757.018 66.9698C756.116 66.7116 755.494 65.8869 755.494 64.9486V64.9486C755.494 64.01 754.872 63.1851 753.969 62.9271L737.958 58.35L728.252 56.3835C726.853 56.1001 725.848 54.8705 725.848 53.4433V44.3057C725.848 41.8109 728.716 40.4061 730.687 41.9355L762.133 66.3342C762.405 66.545 762.556 66.8756 762.537 67.2189V67.2189Z" fill="black"/>
<path d="M720.001 93.0794C720.258 93.0794 720.465 92.8716 720.465 92.6152V77.9794C720.465 77.723 720.258 77.5153 720.001 77.5153V77.5153C719.745 77.5153 719.537 77.723 719.537 77.9794V92.6152C719.537 92.8716 719.745 93.0794 720.001 93.0794V93.0794Z" fill="black"/>
<path d="M717.974 5.59646C717.763 5.74295 717.737 6.03843 717.9 6.23594V6.23594C718.064 6.43331 718.355 6.45739 718.569 6.3158C719.532 5.67813 720.474 5.67802 721.434 6.31606C721.648 6.45803 721.939 6.43438 722.103 6.23703V6.23703C722.268 6.0396 722.241 5.74395 722.031 5.59733C720.695 4.6681 719.31 4.66735 717.974 5.59646Z" fill="black"/>
<defs>
<linearGradient id="paint0_linear" x1="719.5" y1="-69" x2="719.5" y2="1020" gradientUnits="userSpaceOnUse">
<stop stop-color="#BFEBFF"/>
<stop offset="1" stop-color="#B3E1DE" stop-opacity="0"/>
</linearGradient>
<linearGradient id="paint1_linear" x1="719.5" y1="-68" x2="719.5" y2="1021" gradientUnits="userSpaceOnUse">
<stop stop-color="#BFEBFF"/>
<stop offset="1" stop-color="#B3E1DE" stop-opacity="0"/>
</linearGradient>
<linearGradient id="paint2_linear" x1="719.5" y1="-68" x2="719.5" y2="836" gradientUnits="userSpaceOnUse">
<stop stop-color="#BFEBFF"/>
<stop offset="1" stop-color="#B3E1DE" stop-opacity="0"/>
</linearGradient>
<linearGradient id="paint3_linear" x1="719.5" y1="-66" x2="719.5" y2="826" gradientUnits="userSpaceOnUse">
<stop stop-color="#BFEBFF"/>
<stop offset="1" stop-color="#B3E1DE" stop-opacity="0"/>
</linearGradient>
</defs>
</svg>
