<svg width="456" height="188" viewBox="0 0 456 188" fill="none" xmlns="http://www.w3.org/2000/svg">
<rect x="9.5" y="0.5" width="446" height="177" rx="12.5" fill="white" stroke="#EBEBEB"/>
<rect x="0.5" y="10.5" width="446" height="177" rx="12.5" fill="white" stroke="#EBEBEB"/>
<rect x="326" y="157" width="68" height="11" rx="5" transform="rotate(-180 326 157)" fill="url(#paint0_linear)"/>
<rect x="416" y="131" width="108" height="11" rx="5" transform="rotate(-180 416 131)" fill="url(#paint1_linear)"/>
<rect x="361" y="104" width="82" height="11" rx="5" transform="rotate(-180 361 104)" fill="url(#paint2_linear)"/>
<rect x="302" y="78" width="90" height="11" rx="5" transform="rotate(-180 302 78)" fill="url(#paint3_linear)"/>
<rect x="412" y="52" width="128" height="11" rx="5" transform="rotate(-180 412 52)" fill="url(#paint4_linear)"/>
<rect x="255" y="157" width="163" height="11" rx="5" transform="rotate(-180 255 157)" fill="url(#paint5_linear)"/>
<rect x="305" y="131" width="146" height="11" rx="5" transform="rotate(-180 305 131)" fill="url(#paint6_linear)"/>
<rect x="276" y="104" width="144" height="11" rx="5" transform="rotate(-180 276 104)" fill="url(#paint7_linear)"/>
<rect x="209" y="78" width="111" height="11" rx="5" transform="rotate(-180 209 78)" fill="url(#paint8_linear)"/>
<rect x="281" y="52" width="116" height="11" rx="5" transform="rotate(-180 281 52)" fill="url(#paint9_linear)"/>
<rect x="25" y="41" width="47" height="11" rx="5" fill="#E1E4E9"/>
<rect x="25" y="67" width="25" height="11" rx="5" fill="#E1E4E9"/>
<rect x="25" y="120" width="57" height="11" rx="5" fill="#E1E4E9"/>
<rect x="25" y="93" width="34" height="11" rx="5" fill="#E1E4E9"/>
<rect x="25" y="146" width="45" height="11" rx="5" fill="#E1E4E9"/>
<defs>
<linearGradient id="paint0_linear" x1="394" y1="157" x2="321" y2="157" gradientUnits="userSpaceOnUse">
<stop stop-color="#7FF7AF"/>
<stop offset="1" stop-color="#DFFFEC"/>
</linearGradient>
<linearGradient id="paint1_linear" x1="524" y1="131" x2="408.059" y2="131" gradientUnits="userSpaceOnUse">
<stop stop-color="#7FF7AF"/>
<stop offset="1" stop-color="#DFFFEC"/>
</linearGradient>
<linearGradient id="paint2_linear" x1="443" y1="104" x2="354.971" y2="104" gradientUnits="userSpaceOnUse">
<stop stop-color="#7FF7AF"/>
<stop offset="1" stop-color="#DFFFEC"/>
</linearGradient>
<linearGradient id="paint3_linear" x1="392" y1="78" x2="295.382" y2="78" gradientUnits="userSpaceOnUse">
<stop stop-color="#7FF7AF"/>
<stop offset="1" stop-color="#DFFFEC"/>
</linearGradient>
<linearGradient id="paint4_linear" x1="540" y1="52" x2="402.588" y2="52" gradientUnits="userSpaceOnUse">
<stop stop-color="#7FF7AF"/>
<stop offset="1" stop-color="#DFFFEC"/>
</linearGradient>
<linearGradient id="paint5_linear" x1="255" y1="163" x2="418" y2="163" gradientUnits="userSpaceOnUse">
<stop stop-color="#FF6745"/>
<stop offset="1" stop-color="#FFEBE7"/>
</linearGradient>
<linearGradient id="paint6_linear" x1="305" y1="137" x2="451" y2="137" gradientUnits="userSpaceOnUse">
<stop stop-color="#FF6745"/>
<stop offset="1" stop-color="#FFEBE7"/>
</linearGradient>
<linearGradient id="paint7_linear" x1="276" y1="110" x2="420" y2="110" gradientUnits="userSpaceOnUse">
<stop stop-color="#FF6745"/>
<stop offset="1" stop-color="#FFEBE7"/>
</linearGradient>
<linearGradient id="paint8_linear" x1="209" y1="84" x2="320" y2="84" gradientUnits="userSpaceOnUse">
<stop stop-color="#FF6745"/>
<stop offset="1" stop-color="#FFEBE7"/>
</linearGradient>
<linearGradient id="paint9_linear" x1="281" y1="58" x2="397" y2="58" gradientUnits="userSpaceOnUse">
<stop stop-color="#FF6745"/>
<stop offset="1" stop-color="#FFEBE7"/>
</linearGradient>
</defs>
</svg>
