<svg width="458" height="188" viewBox="0 0 458 188" fill="none" xmlns="http://www.w3.org/2000/svg">
<rect x="11.5" y="0.5" width="446" height="177" rx="12.5" fill="white" stroke="#EBEBEB"/>
<rect x="0.5" y="10.5" width="446" height="177" rx="12.5" fill="white" stroke="#EBEBEB"/>
<rect x="22" y="30" width="79" height="11" rx="5" fill="#E1E4E9"/>
<rect x="37" y="76" width="79" height="6" rx="3" fill="#E1E4E9"/>
<rect x="37" y="96" width="79" height="12" rx="6" fill="#E1E4E9"/>
<rect x="176" y="96" width="79" height="12" rx="6" fill="#E1E4E9"/>
<rect x="318" y="96" width="79" height="12" rx="6" fill="#E1E4E9"/>
<rect x="37" y="126" width="36" height="6" rx="3" fill="#E1E4E9"/>
<rect x="176" y="126" width="36" height="6" rx="3" fill="#E1E4E9"/>
<rect x="318" y="126" width="36" height="6" rx="3" fill="#E1E4E9"/>
<rect x="37" y="146" width="36" height="6" rx="3" fill="#E1E4E9"/>
<rect x="176" y="146" width="36" height="6" rx="3" fill="#E1E4E9"/>
<rect x="318" y="146" width="36" height="6" rx="3" fill="#E1E4E9"/>
<rect x="96" y="126" width="36" height="6" rx="3" fill="#E1E4E9"/>
<rect x="235" y="126" width="36" height="6" rx="3" fill="#E1E4E9"/>
<rect x="377" y="126" width="36" height="6" rx="3" fill="#E1E4E9"/>
<rect x="96" y="146" width="36" height="6" rx="3" fill="#E1E4E9"/>
<rect x="235" y="146" width="36" height="6" rx="3" fill="#E1E4E9"/>
<rect x="377" y="146" width="36" height="6" rx="3" fill="#E1E4E9"/>
<rect x="176" y="76" width="79" height="6" rx="3" fill="#E1E4E9"/>
<rect x="318" y="76" width="79" height="6" rx="3" fill="#E1E4E9"/>
<rect x="20.5" y="58.5" width="127" height="111" rx="6.5" stroke="#EBEBEB"/>
<rect x="162.5" y="58.5" width="127" height="111" rx="6.5" stroke="#EBEBEB"/>
<rect x="304.5" y="58.5" width="127" height="111" rx="6.5" stroke="#EBEBEB"/>
<rect x="403" y="24" width="28.5779" height="22.8623" rx="3" fill="black"/>
<line x1="417.473" y1="30.7759" x2="417.473" y2="39.5001" stroke="white" stroke-width="3" stroke-linecap="round" stroke-linejoin="round"/>
<line x1="422.459" y1="35.6392" x2="412.758" y2="35.6392" stroke="white" stroke-width="3" stroke-linecap="round" stroke-linejoin="round"/>
</svg>
